<svg id="OBJECTS_03" data-name="OBJECTS 03" xmlns="http://www.w3.org/2000/svg" xmlns:xlink="http://www.w3.org/1999/xlink" viewBox="0 0 82.65 82.04">
  <defs>
    <clipPath id="clip-path">
      <circle cx="25.57" cy="52.69" r="9.78" fill="none"/>
    </clipPath>
    <clipPath id="clip-path-2">
      <circle cx="52.08" cy="52.69" r="9.78" fill="none"/>
    </clipPath>
    <clipPath id="clip-path-3">
      <path d="M31.44,72.84c2-5.63,12.06-6.63,15.44-.61s-2.54,2.59-3.81,1.6-2.42,2-4.09.45-4,2.67-4.65.84S30.06,76.65,31.44,72.84Z" fill="none"/>
    </clipPath>
  </defs>
  <g>
    <circle cx="7.89" cy="52.7" r="7.89" fill="#efb596"/>
    <circle cx="69.75" cy="52.7" r="7.89" fill="#efb596"/>
    <path d="M67.84,47.38C66.22,66,63.83,82,38.82,82s-27.4-16-29-34.66C8,26.4,21.05,11,38.82,11S69.66,26.4,67.84,47.38Z" fill="#f6c3a3"/>
    <path d="M38.82,77.39c-23.55,0-27.35-14.13-29.11-31.45,0,.48,0,1,.1,1.44C11.42,66,13.82,82,38.82,82s27.4-16,29-34.66c0-.49.07-1,.1-1.44C66.17,63.26,62.37,77.39,38.82,77.39Z" fill="#efb596"/>
    <path d="M28,36.88c-.21.64-2.27.68-4,1.85s-2.69,2.89-3.35,2.81-.75-3.08,2-4.87S28.32,36.26,28,36.88Z" fill="#401a4c"/>
    <path d="M55.61,41.31C55,41.4,54,39.58,52.2,38.57s-3.79-1.13-4-1.76,2.44-2,5.27-.33S56.31,41.31,55.61,41.31Z" fill="#401a4c"/>
    <circle cx="25.57" cy="52.69" r="9.78" fill="#fff"/>
    <circle cx="52.08" cy="52.69" r="9.78" fill="#fff"/>
    <g clip-path="url(#clip-path)">
      <path d="M33.94,49.37a5.25,5.25,0,1,1-5.25-5.25A5.25,5.25,0,0,1,33.94,49.37Z" fill="#401a4c"/>
    </g>
    <g clip-path="url(#clip-path-2)">
      <circle cx="48.95" cy="49.37" r="5.25" fill="#401a4c"/>
    </g>
    <path d="M30.51,67c0,1.26-3,2.28-6.74,2.28S17,68.3,17,67s3-2.28,6.74-2.28S30.51,65.78,30.51,67Z" fill="#efb596"/>
    <path d="M60.61,67c0,1.26-3,2.28-6.74,2.28s-6.73-1-6.73-2.28,3-2.28,6.73-2.28S60.61,65.78,60.61,67Z" fill="#efb596"/>
    <path d="M6.9,39.62,10.78,55.2S15.15,47.08,13.9,42s8.5-6.12,6.25-14.5S1.53,13.55,6.9,39.62Z" fill="#401a4c"/>
    <path d="M70.94,39.62,67.07,55.2S62.69,47.08,63.94,42s-8.5-6.12-6.25-14.5S76.32,13.55,70.94,39.62Z" fill="#401a4c"/>
    <path d="M12,20.49C8,7,35.35-8.3,54.53,5.33c13.7,9.72,22.5,19.31,28.12,16-4.5,6.12-25.23,14.75-37.11,6,0,2.87,5.74,6.12,5.74,6.12s-9,1-14-5.12c-.6,2.5,2.45,5.75,2.45,5.75s-9.38-1.63-11.5-5.88A9.21,9.21,0,0,0,30,34.08S13.9,33,12,20.49Z" fill="#401a4c"/>
    <path d="M14.9,17.33s.06.32.2.86a19.09,19.09,0,0,0,.71,2.22c.16.45.37.93.6,1.42s.51,1,.78,1.54a17.52,17.52,0,0,0,1,1.55l.55.77.62.71a14.21,14.21,0,0,0,1.3,1.38A15.06,15.06,0,0,0,22.06,29c.46.39,1,.65,1.42,1a10.91,10.91,0,0,0,1.35.75c.44.2.81.45,1.18.57l.95.38.82.33-.86-.23-1-.28A9.45,9.45,0,0,1,24.7,31a10.8,10.8,0,0,1-1.43-.68,14.58,14.58,0,0,1-1.5-.93,16.16,16.16,0,0,1-1.47-1.18,15.09,15.09,0,0,1-1.38-1.39L18.3,26l-.56-.8a18.37,18.37,0,0,1-1-1.62A17.09,17.09,0,0,1,16,22a14.87,14.87,0,0,1-.52-1.49,14.81,14.81,0,0,1-.52-2.3C14.91,17.65,14.9,17.33,14.9,17.33Z" fill="#39325d"/>
    <path d="M23.77,13.83a26,26,0,0,0,.9,3.07,29.77,29.77,0,0,0,1.25,3c.26.53.55,1.08.85,1.63s.63,1.09,1,1.59a15.76,15.76,0,0,0,1.13,1.52l.59.72.64.64a12.4,12.4,0,0,0,1.26,1.17,7.86,7.86,0,0,0,1.21.95c.4.26.75.53,1.07.74l.89.5.77.44-.82-.35-.94-.4c-.35-.18-.73-.41-1.15-.66a9.15,9.15,0,0,1-1.29-.9L30.46,27c-.23-.18-.43-.41-.65-.62l-.67-.65L28.51,25a13.93,13.93,0,0,1-1.18-1.54c-.39-.52-.68-1.11-1-1.66s-.58-1.12-.83-1.68A22.1,22.1,0,0,1,24.37,17,17.16,17.16,0,0,1,23.77,13.83Z" fill="#39325d"/>
    <path d="M19.9,12.83s.11.93.33,2.31c.1.69.26,1.48.44,2.33s.39,1.75.67,2.63a20.53,20.53,0,0,0,.93,2.54c.18.39.37.76.54,1.11l.58.95.57.75a3.87,3.87,0,0,0,.5.54l.44.46-.52-.38a4.25,4.25,0,0,1-.57-.47c-.2-.21-.44-.44-.67-.71L22.46,24c-.21-.35-.44-.72-.64-1.12s-.4-.81-.56-1.25-.34-.88-.46-1.33a21.74,21.74,0,0,1-.62-2.7c-.15-.88-.21-1.7-.27-2.4A19.65,19.65,0,0,1,19.9,12.83Z" fill="#39325d"/>
    <path d="M27.78,11.58s.3,1.18.89,2.91c.28.86.67,1.85,1.11,2.9a23.34,23.34,0,0,0,1.6,3.15,14,14,0,0,0,2.12,2.8,13,13,0,0,0,1.2,1.07,9.78,9.78,0,0,0,1.23.76,9.54,9.54,0,0,0,1.14.45,7.69,7.69,0,0,0,.92.23l.83.1s-.3,0-.84,0a8.56,8.56,0,0,1-1-.14,5.91,5.91,0,0,1-1.22-.36,9.62,9.62,0,0,1-1.33-.71,8.07,8.07,0,0,1-1.32-1.06,14.43,14.43,0,0,1-2.25-2.85,24.33,24.33,0,0,1-1.58-3.26,29.06,29.06,0,0,1-1-3A21.84,21.84,0,0,1,27.78,11.58Z" fill="#39325d"/>
    <path d="M35.35,12.83l1,2.44c.3.73.64,1.58,1,2.5s.75,1.89,1.17,2.85.8,1.94,1.21,2.83.79,1.73,1.17,2.41c.19.34.35.67.52.94s.3.52.45.69l.43.59-.52-.52a7.23,7.23,0,0,1-.53-.65,6.85,6.85,0,0,1-.62-.89,24.51,24.51,0,0,1-1.34-2.36c-.44-.89-.88-1.85-1.3-2.82s-.76-2-1.1-2.9-.61-1.81-.85-2.57C35.58,13.86,35.35,12.83,35.35,12.83Z" fill="#39325d"/>
    <path d="M38.82,10.08a36.44,36.44,0,0,0,1.92,4.36,37.45,37.45,0,0,0,2.51,4.17,25.16,25.16,0,0,0,1.67,2.17,23.23,23.23,0,0,0,1.94,2A20.4,20.4,0,0,0,49,24.62a18.37,18.37,0,0,0,2.32,1.43,22,22,0,0,0,2.33,1,17.93,17.93,0,0,0,2.21.6c.69.16,1.34.22,1.92.31s1.08.09,1.5.09h1.31l-1.31.1c-.42,0-.93,0-1.52,0a16.92,16.92,0,0,1-2-.2,18.92,18.92,0,0,1-2.28-.53,16.61,16.61,0,0,1-2.43-1,18.82,18.82,0,0,1-2.4-1.44,20.25,20.25,0,0,1-2.24-1.82,22.89,22.89,0,0,1-2-2.11c-.61-.73-1.15-1.49-1.67-2.23a33.11,33.11,0,0,1-2.39-4.31A27.32,27.32,0,0,1,38.82,10.08Z" fill="#39325d"/>
    <path d="M43.54,11a11.72,11.72,0,0,0,.59,1.41c.22.44.48,1,.83,1.54s.76,1.22,1.25,1.88a8.22,8.22,0,0,0,.79,1c.29.34.58.7.9,1a25.24,25.24,0,0,0,2.19,2,14.51,14.51,0,0,0,1.24,1l1.36.86a9.41,9.41,0,0,0,1.44.76c.5.23,1,.49,1.49.7l1.55.54a9.75,9.75,0,0,0,1.57.47l1.57.34a9.32,9.32,0,0,0,1.55.27l3,.29,2.68,0h1.19L69.76,25l1.75-.16L73,24.64l-1.51.24-1.74.28-1.07.17-1.19.05-2.71.12-3-.22A9.82,9.82,0,0,1,60.21,25l-1.6-.32A11.79,11.79,0,0,1,57,24.23l-1.59-.54c-.52-.22-1-.49-1.52-.73a10.9,10.9,0,0,1-1.47-.79c-.46-.3-.92-.61-1.38-.9s-.84-.67-1.26-1a19.06,19.06,0,0,1-2.18-2.11c-.32-.36-.6-.74-.88-1.09A10.11,10.11,0,0,1,46,16c-.23-.36-.46-.68-.65-1l-.52-.95c-.31-.61-.55-1.15-.73-1.6A12.12,12.12,0,0,1,43.54,11Z" fill="#39325d"/>
    <path d="M47.62,9.58s.17.34.53.91a21.84,21.84,0,0,0,1.61,2.26c.35.45.77.91,1.22,1.39s1,.93,1.49,1.42A19.81,19.81,0,0,0,54.2,16.9c.31.21.62.43.94.63l1,.54a18.22,18.22,0,0,0,2,1c.68.3,1.41.45,2.08.68s1.37.29,2,.43a12.46,12.46,0,0,0,1.83.22,15.38,15.38,0,0,0,1.56.1l1.21,0h1.07l-1.06.11-1.21.12a10.42,10.42,0,0,1-1.59,0,12.52,12.52,0,0,1-1.87-.13,18,18,0,0,1-2.07-.36c-.7-.22-1.44-.37-2.15-.67a16.8,16.8,0,0,1-2.12-1l-1-.58c-.33-.21-.64-.44-1-.66a17.8,17.8,0,0,1-1.76-1.41,18.66,18.66,0,0,1-1.46-1.51,17.45,17.45,0,0,1-1.17-1.47,17.51,17.51,0,0,1-1.46-2.4A10,10,0,0,1,47.62,9.58Z" fill="#39325d"/>
    <path d="M14.9,29.83s-.37.44-.84,1.14a12.31,12.31,0,0,0-.74,1.24,14.43,14.43,0,0,0-.69,1.48,14.17,14.17,0,0,0-.51,1.56c-.07.25-.11.5-.18.73s-.08.46-.12.67c-.07.42-.11.77-.13,1l0,.4-.06-.4a5,5,0,0,1-.07-1,5.77,5.77,0,0,1,0-.71,7.24,7.24,0,0,1,.1-.78c.07-.27.1-.55.2-.83s.16-.56.28-.83a8.75,8.75,0,0,1,1.7-2.7A5.44,5.44,0,0,1,14.9,29.83Z" fill="#39325d"/>
    <path d="M11.62,26.45s-.16.19-.39.53a12.39,12.39,0,0,0-.85,1.52A10.83,10.83,0,0,0,10,29.57c-.15.38-.26.8-.39,1.23a15,15,0,0,0-.46,2.75A13.53,13.53,0,0,0,9,35c0,.47,0,.93,0,1.38s.06.88.08,1.29.1.8.15,1.15c.07.72.21,1.31.27,1.73l.11.66-.21-.63A13.73,13.73,0,0,1,9,38.85c-.08-.36-.16-.75-.25-1.16s-.11-.85-.16-1.31,0-.93-.06-1.42a14.34,14.34,0,0,1,0-1.46,15.19,15.19,0,0,1,.56-2.84,11.86,11.86,0,0,1,1-2.31,9.38,9.38,0,0,1,1-1.43A4.5,4.5,0,0,1,11.62,26.45Z" fill="#39325d"/>
    <path d="M10.18,22.83a11.16,11.16,0,0,0-.8,1.07,11,11,0,0,0-.68,1.17,11.23,11.23,0,0,0-.64,1.4,14.73,14.73,0,0,0-.49,1.46c-.11.48-.25.93-.3,1.32s-.14.72-.17,1L7,30.58s0-.14,0-.38a6.66,6.66,0,0,1,0-1,9.46,9.46,0,0,1,.14-1.4,10.45,10.45,0,0,1,.44-1.56,8.86,8.86,0,0,1,.74-1.44,8.38,8.38,0,0,1,.86-1.12A5,5,0,0,1,10.18,22.83Z" fill="#39325d"/>
    <path d="M61.86,32a13,13,0,0,1,1.21,1.44A19,19,0,0,1,64.14,35a19.31,19.31,0,0,1,1,2,14.61,14.61,0,0,1,.72,2.11,10.05,10.05,0,0,1,.22,1c0,.33.09.63.11.92a8.8,8.8,0,0,1,0,1.37l-.06.52s0-.19-.05-.52a12.79,12.79,0,0,0-.2-1.33c-.05-.27-.14-.56-.21-.87s-.2-.62-.29-.95c-.21-.66-.47-1.35-.76-2-.59-1.35-1.28-2.67-1.83-3.64S61.86,32,61.86,32Z" fill="#39325d"/>
    <path d="M66.3,32a19.8,19.8,0,0,1,.75,2.2c.17.67.39,1.46.55,2.31s.29,1.78.39,2.71.1,1.87.07,2.74a19,19,0,0,1-.26,2.38,11.78,11.78,0,0,1-.43,1.63l-.22.6.11-.63c0-.19.09-.43.12-.71s.05-.59.1-.93,0-.72.06-1.11,0-.81,0-1.24c0-.85-.06-1.77-.14-2.68-.16-1.82-.44-3.64-.68-5S66.3,32,66.3,32Z" fill="#39325d"/>
    <path d="M69.75,32A9.44,9.44,0,0,1,70,33.08a17.61,17.61,0,0,1,.21,2.51A15.51,15.51,0,0,1,70,38.11a8,8,0,0,1-.26,1.13s0-.47-.06-1.15-.06-1.59-.07-2.49,0-1.82,0-2.5S69.75,32,69.75,32Z" fill="#39325d"/>
    <path d="M27.09,24.64a8.66,8.66,0,0,0,.5,1.69,8.45,8.45,0,0,0,.8,1.59,7.12,7.12,0,0,0,.57.82,9.72,9.72,0,0,0,.67.77c.24.25.49.48.74.71l.8.62.78.51c.26.16.52.28.75.41a11.4,11.4,0,0,0,1.15.56l.45.21-.48-.1a8.11,8.11,0,0,1-1.25-.38,9.68,9.68,0,0,1-1.68-.8c-.28-.19-.57-.39-.86-.61s-.55-.48-.81-.73-.5-.54-.7-.85a6.58,6.58,0,0,1-.56-.89,7,7,0,0,1-.41-.9c-.1-.3-.21-.58-.27-.84A5.54,5.54,0,0,1,27.09,24.64Z" fill="#39325d"/>
    <path d="M36.15,26.45s.29.46.77,1.1c.22.32.53.67.84,1.05s.68.76,1.06,1.1a10.48,10.48,0,0,0,1.17,1,8.12,8.12,0,0,0,1.12.73,8.31,8.31,0,0,0,.86.45l.33.17L41.93,32a4.94,4.94,0,0,1-1-.27,4.36,4.36,0,0,1-.61-.25,5.16,5.16,0,0,1-.65-.35,7.44,7.44,0,0,1-1.28-1,8,8,0,0,1-1.79-2.4A5.61,5.61,0,0,1,36.15,26.45Z" fill="#39325d"/>
    <path d="M42.3,22.83a14.3,14.3,0,0,0,.87,1.39,16.44,16.44,0,0,0,1,1.33,15.35,15.35,0,0,0,1.33,1.35A12.31,12.31,0,0,0,47,28.06c.25.18.51.31.74.46a6,6,0,0,0,.7.37,11.79,11.79,0,0,0,1.09.49l.42.18-.45-.08a5.83,5.83,0,0,1-1.18-.29,11.11,11.11,0,0,1-1.58-.7,6.91,6.91,0,0,1-.83-.54,9.08,9.08,0,0,1-.79-.63,9.94,9.94,0,0,1-2.72-4.05A4,4,0,0,1,42.3,22.83Z" fill="#39325d"/>
    <circle cx="25.57" cy="52.69" r="9.78" fill="none" stroke="#ec7e00" stroke-miterlimit="10" stroke-width="1.13"/>
    <circle cx="52.08" cy="52.69" r="9.78" fill="none" stroke="#ec7e00" stroke-miterlimit="10" stroke-width="1.13"/>
    <path d="M40.4,53.72c.62,2.12-.84,5.64,1.6,5.64,4.78,0,4.65,4.63,0,6.54C32.21,69.9,38.77,48.1,40.4,53.72Z" fill="#f1a89e"/>
    <path d="M42.74,65.55l.32-.27c.21-.16.49-.41.81-.71a6.32,6.32,0,0,0,1-1.11,3.76,3.76,0,0,0,.39-.71l.13-.38.06-.39a2.16,2.16,0,0,0-.12-.76,2.37,2.37,0,0,0-.4-.64,3.23,3.23,0,0,0-.57-.48,3.58,3.58,0,0,0-.61-.32c-.2-.09-.4-.13-.57-.2a3.85,3.85,0,0,0-.45-.12l-.4-.09.41,0a4.44,4.44,0,0,1,.49,0,3.13,3.13,0,0,1,.62.11,3.86,3.86,0,0,1,.71.26,2.63,2.63,0,0,1,.72.49,2.27,2.27,0,0,1,.56.79A2.38,2.38,0,0,1,46,62l-.08.5-.17.46a3.43,3.43,0,0,1-.49.78,3.75,3.75,0,0,1-.58.61,4.73,4.73,0,0,1-.59.46,6.23,6.23,0,0,1-1,.55Z" fill="#401a4c"/>
    <path d="M35.11,54.7c1.19-5.75,6-5.71,7.42,0" fill="none" stroke="#ec7e00" stroke-miterlimit="10" stroke-width="1.13"/>
    <line x1="15.7" y1="52.03" x2="7.52" y2="44.12" fill="none" stroke="#ec7e00" stroke-linecap="round" stroke-miterlimit="10" stroke-width="1.13"/>
    <line x1="62.03" y1="52.03" x2="70.2" y2="44.12" fill="none" stroke="#ec7e00" stroke-linecap="round" stroke-miterlimit="10" stroke-width="1.13"/>
    <path d="M29.52,73.7a1.11,1.11,0,0,1,0,.13l.08.35A1.93,1.93,0,0,0,30,75a1.71,1.71,0,0,0,.71.49,2.85,2.85,0,0,1,.45.22,1.94,1.94,0,0,1-.5.09,1.54,1.54,0,0,1-.54-.06,1.2,1.2,0,0,1-.57-.39,1.39,1.39,0,0,1-.2-1.18,1.27,1.27,0,0,1,.13-.34A.86.86,0,0,1,29.52,73.7Z" fill="#e69f7f"/>
    <g>
      <path d="M45.54,76.2c1.65,1.66,5.65.91,4-2.5" fill="#f6c3a3"/>
      <path d="M45.54,76.2l.27.15a2.78,2.78,0,0,0,.72.3,3.3,3.3,0,0,0,1.07.14,2.88,2.88,0,0,0,.59-.06,1.91,1.91,0,0,0,.57-.19,2.15,2.15,0,0,0,.48-.3,1.83,1.83,0,0,0,.47-.95,2.84,2.84,0,0,0,0-.5,3.87,3.87,0,0,1,0-.45L49.59,74c-.05-.19-.07-.3-.07-.3a3.54,3.54,0,0,1,.51,1,3.21,3.21,0,0,1,.09.58A1.78,1.78,0,0,1,50,76a1.7,1.7,0,0,1-.39.64,2.42,2.42,0,0,1-.62.44A3,3,0,0,1,46.41,77a1.48,1.48,0,0,1-.4-.27,1.33,1.33,0,0,1-.27-.24Z" fill="#e69f7f"/>
    </g>
    <path d="M34.44,65.55a5.27,5.27,0,0,0-.7.67c-.2.21-.39.49-.61.77s-.41.6-.59.94-.37.67-.54,1-.32.62-.44.89c-.24.53-.43.89-.43.89s0-.1,0-.28a5.21,5.21,0,0,1,.11-.71,7.18,7.18,0,0,1,.79-2.07,5.26,5.26,0,0,1,.7-1,4.87,4.87,0,0,1,.78-.7A2.65,2.65,0,0,1,34.44,65.55Z" fill="#e69f7f"/>
    <path d="M44.94,66.39a2.82,2.82,0,0,1,.78.36,4.63,4.63,0,0,1,1.34,1.32c.1.15.17.3.26.45a3.45,3.45,0,0,1,.19.46,2.81,2.81,0,0,1,.13.45,4.18,4.18,0,0,1,.08.41,3.69,3.69,0,0,1,0,.62c0,.15,0,.24,0,.24a2.19,2.19,0,0,1-.09-.22c0-.14-.14-.33-.23-.55a8,8,0,0,0-.35-.75c-.15-.26-.29-.54-.47-.8s-.37-.51-.55-.75-.35-.46-.53-.64C45.19,66.63,44.94,66.39,44.94,66.39Z" fill="#e69f7f"/>
    <path d="M31.44,72.84c2-5.63,12.06-6.63,15.44-.61s-2.54,2.59-3.81,1.6-2.42,2-4.09.45-4,2.67-4.65.84S30.06,76.65,31.44,72.84Z" fill="#401a4c"/>
    <g clip-path="url(#clip-path-3)">
      <path d="M42.3,75.89c0,1.92-2.25,3.47-5,3.47s-5-1.55-5-3.47,2.25-3.47,5-3.47S42.3,74,42.3,75.89Z" fill="#c71c24"/>
      <path d="M47.52,69.2c0,1.2-3.56,2.16-8,2.16s-8-1-8-2.16,3.56-2.16,8-2.16S47.52,68,47.52,69.2Z" fill="#fff"/>
    </g>
  </g>
</svg>
